<svg xmlns="http://www.w3.org/2000/svg" width="512" height="512" viewBox="0 0 512 512">
  <defs>
    <linearGradient id="bg" x1="0%" y1="0%" x2="100%" y2="100%">
      <stop offset="0%" style="stop-color:#1a1a2e"/>
      <stop offset="100%" style="stop-color:#16213e"/>
    </linearGradient>
  </defs>
  <!-- Background -->
  <rect width="512" height="512" rx="80" fill="url(#bg)"/>
  <!-- Shield shape -->
  <path d="M256 60 L410 120 L410 240 C410 340 340 420 256 460 C172 420 102 340 102 240 L102 120 Z" 
        fill="none" stroke="#007bff" stroke-width="12"/>
  <!-- Inner circle with signal waves -->
  <circle cx="256" cy="220" r="60" fill="none" stroke="#00d4ff" stroke-width="6"/>
  <!-- Signal waves -->
  <path d="M200 180 Q190 220 200 260" fill="none" stroke="#00d4ff" stroke-width="4" opacity="0.7"/>
  <path d="M180 160 Q165 220 180 280" fill="none" stroke="#00d4ff" stroke-width="4" opacity="0.5"/>
  <path d="M160 140 Q140 220 160 300" fill="none" stroke="#00d4ff" stroke-width="4" opacity="0.3"/>
  <path d="M312 180 Q322 220 312 260" fill="none" stroke="#00d4ff" stroke-width="4" opacity="0.7"/>
  <path d="M332 160 Q347 220 332 280" fill="none" stroke="#00d4ff" stroke-width="4" opacity="0.5"/>
  <path d="M352 140 Q372 220 352 300" fill="none" stroke="#00d4ff" stroke-width="4" opacity="0.3"/>
  <!-- Center dot -->
  <circle cx="256" cy="220" r="15" fill="#007bff"/>
  <!-- CEW Text -->
  <text x="256" y="380" text-anchor="middle" font-family="Arial, sans-serif" font-size="48" font-weight="bold" fill="#ffffff">CEW</text>
</svg>
